<?xml version="1.0" encoding="UTF-8" standalone="no"?>
<svg
   xmlns:dc="http://purl.org/dc/elements/1.1/"
   xmlns:cc="http://creativecommons.org/ns#"
   xmlns:rdf="http://www.w3.org/1999/02/22-rdf-syntax-ns#"
   xmlns:svg="http://www.w3.org/2000/svg"
   xmlns="http://www.w3.org/2000/svg"
   xmlns:sodipodi="http://sodipodi.sourceforge.net/DTD/sodipodi-0.dtd"
   xmlns:inkscape="http://www.inkscape.org/namespaces/inkscape"
   width="21"
   height="19"
   viewBox="0 0 21 19"
   version="1.1"
   id="svg4491"
   sodipodi:docname="entrance.svg"
   inkscape:version="0.92.1 r15371">
  <metadata
     id="metadata4497">
    <rdf:RDF>
      <cc:Work
         rdf:about="">
        <dc:format>image/svg+xml</dc:format>
        <dc:type
           rdf:resource="http://purl.org/dc/dcmitype/StillImage" />
        <dc:title></dc:title>
      </cc:Work>
    </rdf:RDF>
  </metadata>
  <defs
     id="defs4495" />
  <sodipodi:namedview
     pagecolor="#ffffff"
     bordercolor="#666666"
     borderopacity="1"
     objecttolerance="10"
     gridtolerance="10"
     guidetolerance="10"
     inkscape:pageopacity="0"
     inkscape:pageshadow="2"
     inkscape:window-width="1366"
     inkscape:window-height="705"
     id="namedview4493"
     showgrid="false"
     inkscape:zoom="28.315789"
     inkscape:cx="10.5"
     inkscape:cy="9.5"
     inkscape:window-x="-8"
     inkscape:window-y="-8"
     inkscape:window-maximized="1"
     inkscape:current-layer="svg4491" />
  <g
     fill="#000"
     id="g4489">
    <path
       d="M6 14.875L12.917 9.5 6 4.125v2.917H-.042v4.917H6z"
       id="path4485" />
    <path
       d="M18 0H5C3.9 0 3 .9 3 2v2h2V2h13v15H5v-2H3v2c0 1.1.9 2 2 2h13c1.1 0 2-.9 2-2V2c0-1.1-.9-2-2-2z"
       id="path4487" />
  </g>
  <path
     style="opacity:0.98000004;fill:#ffffff;fill-opacity:1;stroke:#000000;stroke-width:0.01334777;stroke-miterlimit:4;stroke-dasharray:none;stroke-opacity:1"
     d="M 6.0219331,13.390374 V 11.957993 H 3.0024164 -0.01710037 V 9.5035316 7.0490706 H 3.0024164 6.0219331 V 5.6187732 c 0,-0.7866635 0.00712,-1.4302974 0.015816,-1.4302974 0.0087,0 1.55192,1.1936418 3.42938,2.6525374 2.8251559,2.1953105 3.4053109,2.6603804 3.3656899,2.6980378 -0.05559,0.052836 -6.7093382,5.220945 -6.7701876,5.258552 -0.030465,0.01883 -0.040698,-0.335006 -0.040698,-1.407229 z"
     id="path4499"
     inkscape:connector-curvature="0" />
  <path
     style="opacity:0.98000004;fill:#ffffff;fill-opacity:1;stroke:#000000;stroke-width:0.01334777;stroke-miterlimit:4;stroke-dasharray:none;stroke-opacity:1"
     d="M 4.510077,18.91463 C 4.1402831,18.817367 3.9223764,18.688467 3.6168001,18.386221 3.3241734,18.096784 3.132368,17.759061 3.0588151,17.403745 c -0.023245,-0.11229 -0.038741,-0.62436 -0.038741,-1.280204 v -1.093058 h 0.9888476 0.9888476 v 0.988848 0.988847 h 6.5157997 6.515799 V 9.5035316 1.9988848 H 11.513569 4.9977695 V 2.9877323 3.9765799 H 4.0089219 3.0200743 V 2.8835227 c 0,-0.6509306 0.015572,-1.1687557 0.038498,-1.2802045 C 3.2064096,0.88463951 3.8288964,0.24365049 4.5423032,0.0754858 4.7394943,0.02900382 5.6235405,0.02223361 11.495911,0.02223361 c 7.466481,0 6.944051,-0.01671819 7.430373,0.2377777 0.326103,0.17065212 0.672153,0.51518173 0.824277,0.82065779 0.237429,0.476772 0.221186,-0.1419444 0.221186,8.4251301 0,8.6189838 0.01898,7.9429778 -0.236647,8.4294328 -0.223285,0.424912 -0.620014,0.760334 -1.128823,0.954384 l -0.206091,0.0786 -6.815985,0.0072 c -6.6236651,0.007 -6.823269,0.0052 -7.074124,-0.06074 z"
     id="path4501"
     inkscape:connector-curvature="0" />
  <path
     style="opacity:0.98000004;fill:#ffffff;fill-opacity:1;stroke:#000000;stroke-width:0.01334777;stroke-miterlimit:4;stroke-dasharray:none;stroke-opacity:1"
     d="M 6.0572491,13.336558 V 11.922677 H 3.0377323 0.01821561 V 9.5035316 7.0843866 H 3.0377323 6.0572491 V 5.6717472 c 0,-0.7769517 0.00873,-1.4126394 0.019405,-1.4126394 0.020947,0 1.1254516,0.8518462 3.6357997,2.8041021 1.8485272,1.4375692 2.8995622,2.2732241 3.0081412,2.3917071 l 0.07691,0.083931 -1.29333,1.006505 c -3.275136,2.548804 -5.3284992,4.139081 -5.3851267,4.170642 -0.058404,0.03255 -0.061803,-0.0433 -0.061803,-1.379437 z"
     id="path4503"
     inkscape:connector-curvature="0" />
  <path
     style="opacity:0.98000004;fill:#ffffff;fill-opacity:1;stroke:#000000;stroke-width:0.01334777;stroke-miterlimit:4;stroke-dasharray:none;stroke-opacity:1"
     d="M 4.6722783,18.913766 C 4.0627948,18.842397 3.4232168,18.306964 3.1515892,17.640696 3.0774998,17.458964 3.0731421,17.391389 3.0624066,16.257714 l -0.011287,-1.191915 h 0.955667 0.9556669 v 0.988848 0.988847 h 6.5511155 6.551115 V 9.5035316 1.9635688 H 11.513569 4.9624535 V 2.9524164 3.9412639 H 4.0067866 3.0511196 L 3.0620839,2.7493494 3.0730483,1.5574349 3.1694965,1.327881 C 3.370395,0.84972704 3.7256538,0.46584415 4.1709003,0.24579142 4.3981597,0.13347369 4.4900374,0.10941254 4.7969692,0.08183492 5.0055802,0.06309135 7.9383381,0.05505807 11.778439,0.06271158 c 7.366347,0.01468149 6.765296,-0.007094 7.200953,0.26088394 0.304983,0.18759828 0.670295,0.58493317 0.798343,0.86832638 0.09181,0.2031822 0.10435,0.2789916 0.133524,0.8069629 0.01826,0.3305354 0.02654,3.7922555 0.01912,7.9990706 -0.01437,8.1469376 0.0021,7.5677296 -0.225558,7.9487676 -0.05714,0.09565 -0.215135,0.286783 -0.351102,0.424741 -0.192857,0.195683 -0.317096,0.284979 -0.565055,0.406134 L 18.47082,18.9329 11.690151,18.9372 C 7.9607827,18.9396 4.802741,18.929 4.6722803,18.91374 Z"
     id="path4505"
     inkscape:connector-curvature="0" />
</svg>
